<?xml version="1.0" encoding="UTF-8"?>
<svg id="Layer_2" data-name="Layer 2" xmlns="http://www.w3.org/2000/svg" viewBox="0 0 1975.87 111.27">
  <defs>
    <style>
      .cls-1 {
        fill: #202020;
      }

      .cls-2 {
        opacity: .36;
      }
    </style>
  </defs>
  <g id="Layer_1-2" data-name="Layer 1">
    <g>
      <g>
        <path class="cls-1" d="M8.19,93.85c6.08,.73,16.6,1.22,26.56,1.71-7.65-.78-15.8-1.32-26.56-1.71Z"/>
        <path class="cls-1" d="M34.95,95.58h.15c-.14,0-.24-.01-.35-.02,.08,0,.14,.01,.19,.02Z"/>
        <path class="cls-1" d="M1968.67,81.39c-2.47-.43-5.28-.93-8.14-1.43,2.72,.5,5.49,1,8.14,1.43Z"/>
        <path class="cls-1" d="M518.01,111.15l1.53-.79c23.69,.15,6.89,1,28.8,.9,8.57-1.12,36.39,.14,43.96-.45-.17,.11,10.56,.06,9.88,.42,3.28-.64,11.03-.22,17.8-.42,2.45-.19-1.8-.17-3.64-.34l15.5-.32c6.06,.16,7.56,.51,.97,.62,10.13,.05,29.88-.25,54.49-.51,24.61-.44,54.09-.95,83.65-1.94,59.15-1.74,118.59-4.98,140.35-6.35-5.62-.12-19.05,.9-24.2,.44,11.49-1.01,16.96-.75,22.01-1.48,4.48,.82,25.31-1.18,34.09-.61l3.26-.82,5.74,.03c25.28-1.86,28.17-2.13,30.34-2.25,2.17-.12,3.63-.09,26.06-1.46,25.94-1.79,38.21-3.45,52.66-4.11-2.14,.14-7.89,.15-1.18-.46,1.18,.46,17.86-1.58,21.16-1.26,6.58-.51,27.89-1.87,20.63-2.12,3.64,.12,22.67-1,11.37,.08,6.41-.41,12.64-.72,17.24-1.19l-8.25,.34c21.65-1.55,33.49-1.77,47.55-3.35l-8.02,.23c12.94-.89,23.77-1.64,28.9-1.25l-13.28,1.09c21.47-1.43,34.41-2.27,52.28-3.77l-6.39,.38c5.69-.55,17.41-1.44,32.11-2.47,14.7-1.07,32.4-2.2,50.03-3.34,17.64-1.07,35.22-2.13,49.7-3,14.49-.82,25.87-1.53,31.12-1.98l-9.7-.15c6.02-.43,12.04-.83,18.06-1.19-2.14,.07-8.65,2.15-10.45,2.04,4.84-.19,12.22-.47,21.5-.83,4.64-.18,9.76-.37,15.27-.58,5.51-.17,11.42-.35,17.64-.54,6.22-.19,12.76-.38,19.53-.59,6.77-.15,13.78-.3,20.94-.46,7.16-.13,14.48-.35,21.87-.42,7.39-.08,14.85-.17,22.31-.25,3.73-.04,7.46-.07,11.17-.11,3.72,0,7.42,0,11.1,0,7.37,0,14.64,0,21.76,0,14.22,.1,27.78,.31,40.03,.46,12.25,.32,23.19,.6,32.19,.84,9,.25,16.04,.64,20.5,.83,14.39,.86,2.56,1,2.39,1.08,8.77,.23,10.66,.15,12.23,.09,.78-.03,1.48-.05,2.92-.03,1.44,.01,3.61,.09,7.33,.31,4.06,.31-.86,.4-3.15,.36,6.53,.27,12.57,.79,13.08,.55-8.15-.63-4.66-1.15-8.09-1.79l19.16,1.06-.87,.4c2.14,.12,4.86-.04,9.4-.08,4.54-.05,10.9,.19,20.29,.93,3.96,.29,7.97,.58,12.01,.87,4.04,.28,8.11,.56,12.2,.94,8.18,.69,16.44,1.39,24.72,2.09l6.2,.52c2.06,.2,4.13,.41,6.19,.61,4.12,.42,8.23,.83,12.33,1.25,4.09,.42,8.17,.83,12.21,1.24,2.02,.21,4.04,.42,6.04,.62,2,.24,3.99,.48,5.98,.72-.26,.1-2.06,0-4.63-.22-2.57-.2-5.92-.45-9.28-.71,2.13,.22,4.82,.49,7.47,.76,2.64,.29,5.24,.66,7.19,.98-7.61-1.38,13.35,1.28,7.38,.37,5.84,.42,12.1,1.03,18.51,1.72,1.6,.18,3.22,.34,4.84,.55,1.62,.22,3.24,.43,4.86,.65,3.25,.45,6.51,.9,9.75,1.35,6.48,.9,12.87,1.78,18.92,2.62,6.05,.84,11.75,1.73,16.88,2.34,.96-.33,12.54-2.76,24-5.18,11.41-2.23,22.72-4.5,22.82-5.07,6.37,1.17,12.71,2.33,14.64,2.77-1.59-.56-14.11-2.94-20.8-3.99l-1.26,.41c-7.68-1.27-8.56-1.52-9.39-1.79-.42-.13-.82-.27-2.06-.54-1.23-.27-3.3-.69-7.06-1.25-.36-.29,2.93,0,7.8,.81,4.88,.78,11.36,1.9,17.43,2.97-10.91-1.99-21.72-4.42-26.28-4.49-10.26-1.84,1.25-.43-11.12-2.61-8.86-1.23-20.52-2.7-30.67-4.31l.19-.06c-6.17-.99-11.62-1.76-16.69-2.42-5.07-.65-9.74-1.26-14.36-1.67-9.24-.91-18.21-1.78-29.5-3.39l2.46,.12c-3.98-.66-9.94-1.23-16.7-1.89-6.76-.66-14.33-1.41-21.55-2.29,4.12,.52,7.67,1.25-1.03,.43-16.62-1.82-28.02-2.38-40.16-3.82l-11.73-.3c-3.63-.25-7.92-.54-12.81-.88-2.44-.16-5.03-.34-7.75-.52-2.72-.19-5.58-.37-8.57-.51-5.97-.31-12.45-.64-19.34-.99-6.89-.35-14.21-.76-21.86-.99-7.65-.28-15.63-.57-23.87-.86-4.12-.17-8.3-.26-12.53-.35-4.23-.1-8.52-.19-12.85-.29-17.31-.49-35.29-.52-53.28-.73-17.98,.06-35.96-.04-53.27,.26-8.65,.13-17.14,.18-25.38,.36-8.23,.18-16.22,.36-23.87,.53-7.65,.14-14.96,.38-21.86,.6-6.9,.21-13.37,.41-19.35,.6-11.96,.38-21.9,.82-29.18,1.08l2.28-.16c-44.37,1.71-112.04,5.09-179.96,9.5-67.93,4.33-136.13,9.25-181.78,12.59-14.16,.45-33.64,1.84-48.39,2.63,8.21-.32,5.42,.21-.98,.6-44.91,2.77-3.01,.54-48.41,3.55-26.13,1.76-89.25,5.43-151.64,7.61-15.6,.47-31.16,.94-46.08,1.39-14.92,.3-29.21,.59-42.28,.86-6.53,.15-12.76,.22-18.61,.27-5.85,.06-11.32,.11-16.33,.16-10.03,.08-18.24,.14-24.05,.18-12.48,.44-26.51,.58-40.48,.69-13.97,.11-27.88,0-40.11,.24l2.46-.17c-6.57,.07-20.79,.09-38.91-.1-9.06-.08-19.09-.18-29.62-.27-10.54-.17-21.57-.34-32.65-.52-5.54-.09-11.08-.18-16.57-.26-5.49-.12-10.94-.23-16.27-.35-10.67-.22-20.9-.44-30.23-.63-18.65-.44-33.67-.82-41.31-.93l4.1,.2c-13.32-.09-19.07-.33-24.11-.66-5.04-.32-9.37-.7-19.86-1.12,2.73,.87-20.1,.73-28.81,.48l.34-.17c-13.13-.29-42.89-.51-64.57-1.2l.86-.41c-18.09-.13-52.08-1.61-65.07-2.06-29.71-1.31-75.5-3.93-115.26-4.98l-25.62-2.33-3.76-.03s-41.98,13.54,10.37,18.96l-.85,.41,10.38,.37c12.44,.73,18.22,.46,17.36,.86l-17.06-.76c12.5,.65,3.76,.52-1.03,.57,5.22,.26,10.29,.52,14.44,.83,2.47-.07-1.8-.26-3.75-.44,6.74,.12,16.13,.09,24.31,.63,12.81,.56,.79,.75,15.74,1.41,78.84,3.55,155.26,6.96,235.05,9.13,1.81,.24-.35,.17-2.66,.18,24.04,.53,45.41,1.1,67.31,1.43,6.08,.34,7.73,.66,9.53,.88-1.8-.24,28.43,.32,59.37,.77,15.47,.2,31.12,.4,43.02,.55,11.9,.09,20.06,.17,20.56,.2Z"/>
      </g>
      <g class="cls-2">
        <g>
          <path class="cls-1" d="M8.46,46.71c6.06,.73,16.54,1.22,26.46,1.71-7.62-.78-15.74-1.32-26.46-1.71Z"/>
          <path class="cls-1" d="M35.12,48.44s.11,0,.15,0c-.14,0-.24-.01-.35-.02,.08,0,.14,.01,.19,.02Z"/>
          <path class="cls-1" d="M1961.71,34.25c-2.46-.43-5.26-.93-8.11-1.43,2.71,.5,5.47,1,8.11,1.43Z"/>
          <path class="cls-1" d="M516.41,64.01l1.52-.79c23.6,.15,6.86,1,28.69,.9,8.54-1.12,36.25,.14,43.8-.45-.17,.11,10.52,.06,9.84,.42,3.27-.64,10.99-.22,17.73-.42,2.44-.19-1.79-.17-3.62-.34l15.44-.32c6.04,.16,7.53,.51,.97,.62,10.09,.05,29.77-.25,54.29-.51,24.52-.44,53.89-.95,83.35-1.95,58.93-1.74,118.15-4.98,139.83-6.35-5.6-.12-18.98,.9-24.11,.44,11.45-1.01,16.9-.75,21.93-1.48,4.46,.82,25.22-1.18,33.96-.61l3.25-.82,5.72,.03c25.19-1.86,28.06-2.13,30.23-2.25,2.16-.12,3.62-.09,25.96-1.46,25.84-1.79,38.07-3.45,52.46-4.11-2.14,.14-7.86,.15-1.18-.46,1.18,.46,17.79-1.58,21.09-1.26,6.55-.51,27.79-1.87,20.55-2.12,3.63,.12,22.58-1,11.33,.08,6.39-.41,12.59-.72,17.18-1.19l-8.22,.34c21.57-1.55,33.37-1.77,47.37-3.35l-7.99,.23c12.9-.89,23.68-1.64,28.79-1.25l-13.23,1.09c21.39-1.43,34.28-2.27,52.09-3.77l-6.36,.38c5.67-.55,17.34-1.44,31.99-2.47,14.65-1.07,32.28-2.2,49.85-3.34,17.57-1.07,35.09-2.13,49.52-3,14.43-.82,25.78-1.53,31-1.98l-9.67-.15c6-.43,11.99-.83,17.99-1.19-2.13,.07-8.62,2.15-10.41,2.04,4.82-.19,12.18-.47,21.42-.83,4.62-.18,9.72-.37,15.21-.58,5.49-.17,11.38-.35,17.57-.54,6.2-.19,12.71-.38,19.46-.59,6.75-.15,13.73-.3,20.86-.46,7.13-.13,14.42-.35,21.78-.42,7.36-.08,14.8-.17,22.23-.25,3.72-.04,7.43-.07,11.13-.11,3.7,0,7.39,0,11.06,0,7.34,0,14.59,0,21.68,0,14.17,.1,27.68,.31,39.89,.46,12.2,.32,23.1,.6,32.07,.84,8.96,.25,15.98,.64,20.43,.83,14.34,.86,2.55,1,2.38,1.08,8.73,.23,10.62,.15,12.19,.09,.78-.03,1.48-.05,2.91-.03,1.43,.01,3.6,.09,7.3,.31,4.04,.31-.86,.4-3.14,.36,6.5,.27,12.52,.79,13.03,.55-8.12-.63-4.64-1.15-8.06-1.79l19.09,1.06-.87,.4c2.13,.12,4.84-.04,9.37-.08,4.53-.05,10.86,.19,20.22,.93,3.95,.29,7.94,.58,11.97,.87,4.03,.28,8.08,.56,12.15,.94,8.15,.69,16.38,1.39,24.62,2.09l6.18,.52c2.06,.2,4.11,.41,6.17,.61,4.11,.42,8.2,.83,12.28,1.25,4.08,.42,8.14,.83,12.16,1.24,2.01,.21,4.02,.42,6.02,.62,1.99,.24,3.98,.48,5.95,.72-.26,.1-2.05,0-4.62-.22-2.56-.2-5.9-.45-9.24-.71,2.12,.22,4.8,.49,7.44,.76,2.63,.29,5.22,.66,7.16,.98-7.58-1.38,13.3,1.28,7.35,.37,5.82,.42,12.05,1.03,18.44,1.72,1.6,.18,3.21,.34,4.82,.55,1.61,.22,3.23,.43,4.85,.65,3.24,.45,6.48,.9,9.71,1.35,6.45,.9,12.82,1.78,18.85,2.62,6.03,.84,11.7,1.73,16.82,2.34,.96-.33,12.5-2.76,23.92-5.18,11.38-2.23,22.64-4.5,22.75-5.07,6.35,1.17,12.66,2.33,14.59,2.77-1.59-.56-14.05-2.94-20.72-3.99l-1.25,.41c-7.65-1.27-8.53-1.52-9.36-1.79-.41-.13-.82-.27-2.05-.54-1.23-.27-3.29-.69-7.03-1.25-.36-.29,2.92,0,7.77,.81,4.86,.78,11.32,1.9,17.36,2.97-10.87-1.99-21.63-4.42-26.18-4.49-10.22-1.84,1.24-.43-11.08-2.61-8.83-1.23-20.45-2.7-30.56-4.31l.19-.06c-6.14-.99-11.58-1.76-16.63-2.42-5.05-.65-9.7-1.26-14.31-1.67-9.21-.91-18.14-1.78-29.4-3.39l2.45,.12c-3.97-.66-9.9-1.23-16.64-1.89-6.74-.66-14.28-1.41-21.47-2.29,4.1,.52,7.64,1.25-1.03,.43-16.56-1.82-27.92-2.38-40.01-3.82l-11.69-.3c-3.61-.25-7.89-.54-12.76-.88-2.43-.16-5.01-.34-7.72-.52-2.71-.19-5.56-.37-8.54-.51-5.95-.31-12.4-.64-19.27-.99-6.87-.35-14.15-.76-21.78-.99-7.62-.28-15.58-.57-23.78-.86-4.1-.17-8.27-.26-12.49-.35-4.22-.1-8.49-.19-12.8-.29-17.25-.49-35.17-.52-53.08-.73-17.91,.06-35.83-.04-53.07,.26-8.62,.13-17.08,.18-25.28,.36-8.2,.18-16.16,.36-23.78,.53-7.62,.14-14.91,.38-21.78,.6-6.87,.21-13.32,.41-19.28,.6-11.91,.38-21.82,.82-29.07,1.08l2.27-.16c-44.21,1.71-111.63,5.09-179.29,9.5-67.68,4.33-135.62,9.25-181.11,12.59-14.11,.45-33.52,1.84-48.21,2.63,8.18-.32,5.4,.21-.97,.6-44.75,2.77-3,.54-48.24,3.55-26.04,1.76-88.92,5.43-151.08,7.61-15.54,.47-31.04,.94-45.91,1.39-14.87,.3-29.11,.59-42.12,.86-6.51,.15-12.71,.22-18.54,.27-5.83,.06-11.27,.11-16.27,.16-9.99,.08-18.17,.14-23.96,.18-12.43,.44-26.41,.58-40.33,.69-13.92,.11-27.78,0-39.96,.24l2.45-.17c-6.54,.07-20.71,.09-38.76-.1-9.02-.08-19.02-.18-29.52-.27-10.5-.17-21.49-.34-32.53-.52-5.52-.09-11.04-.18-16.51-.26-5.47-.12-10.9-.23-16.21-.35-10.63-.22-20.82-.44-30.11-.63-18.58-.44-33.55-.82-41.16-.93l4.09,.2c-13.27-.09-19-.33-24.02-.66-5.02-.32-9.34-.7-19.79-1.12,2.72,.87-20.03,.73-28.7,.48l.33-.17c-13.08-.29-42.73-.51-64.33-1.2l.86-.41c-18.03-.13-51.89-1.61-64.83-2.06-29.6-1.31-75.22-3.93-114.84-4.98l-25.52-2.33-3.75-.03s-41.83,13.54,10.33,18.96l-.85,.41,10.34,.37c12.4,.73,18.16,.46,17.29,.86l-16.99-.76c12.46,.65,3.75,.52-1.02,.57,5.2,.26,10.25,.52,14.39,.83,2.46-.07-1.8-.26-3.73-.44,6.71,.12,16.07,.09,24.22,.63,12.76,.56,.78,.75,15.68,1.41,78.54,3.55,154.69,6.96,234.18,9.13,1.8,.24-.35,.17-2.65,.18,23.95,.53,45.24,1.1,67.06,1.43,6.05,.34,7.7,.66,9.49,.88-1.8-.24,28.33,.32,59.15,.77,15.41,.2,31,.4,42.86,.55,11.86,.09,19.99,.17,20.48,.2Z"/>
        </g>
      </g>
    </g>
  </g>
</svg>