<?xml version="1.0" encoding="UTF-8"?>
<svg id="Layer_2" data-name="Layer 2" xmlns="http://www.w3.org/2000/svg" viewBox="0 0 69 40.63">
  <defs>
    <style>
      .cls-1 {
        fill: #231f20;
      }
    </style>
  </defs>
  <g id="Layer_1-2" data-name="Layer 1">
    <g>
      <path class="cls-1" d="M33.57,17.85s-15.21,.55-16.24,1.42l2.19-2.74L30.23,3.07l1.38,.88,3.8-3.94,1.5,1.86,1.27-1.09,16.01,18.18s-14.29-.99-16.13-1.64c-1.84-.66-3.92-.99-3.11-1.42,.81-.44,7.03-1.75,7.37-2.63,.35-.88,.69-1.64-9.56-2.63,4.49,.99,7.03,1.86,6.22,2.19-.81,.33-3.46,1.09-5.07,1.2-1.61,.11-5.76,1.09-5.41,1.97,.35,.88,4.15,1.75,5.07,1.86Z"/>
      <g>
        <path class="cls-1" d="M5.01,29.77H0v-2.39H13.69v2.39h-5.01v10.56h-3.67v-10.56Z"/>
        <path class="cls-1" d="M15.61,27.38h5.17l3.91,8.91h.05l3.7-8.91h5.17v12.95h-3.44v-9.18h-.05l-4.09,9.18h-2.83l-4.09-9.09h-.05v9.09h-3.44v-12.95Z"/>
        <path class="cls-1" d="M47.97,31.73c-.23-1.29-1.82-2.27-3.65-2.27-3.3,0-4.54,2.18-4.54,4.44s1.24,4.33,4.54,4.33c2.25,0,3.51-1.2,3.79-2.9h3.56c-.37,3.23-3.25,5.3-7.35,5.3-5.17,0-8.21-2.99-8.21-6.73s3.04-6.84,8.21-6.84c3.67,0,6.76,1.67,7.21,4.66h-3.56Z"/>
        <path class="cls-1" d="M65.3,31.73c-.23-1.29-1.83-2.27-3.65-2.27-3.3,0-4.54,2.18-4.54,4.44s1.24,4.33,4.54,4.33c2.25,0,3.51-1.2,3.79-2.9h3.56c-.37,3.23-3.25,5.3-7.35,5.3-5.17,0-8.21-2.99-8.21-6.73s3.04-6.84,8.21-6.84c3.67,0,6.76,1.67,7.21,4.66h-3.56Z"/>
      </g>
    </g>
  </g>
</svg>