<?xml version="1.0" encoding="UTF-8"?>
<svg id="Layer_2" data-name="Layer 2" xmlns="http://www.w3.org/2000/svg" viewBox="0 0 68.7 939.99">
  <defs>
    <style>
      .cls-1 {
        opacity: .14;
      }

      .cls-2 {
        opacity: .36;
      }
    </style>
  </defs>
  <g id="Layer_1-2" data-name="Layer 1">
    <g>
      <g class="cls-2">
        <g>
          <path class="cls-1" d="M33.34,7.64c-2.9,71.74-5.76,143.49-6.14,215.3-.21,39.25,.36,78.54,2.21,117.75,1.69,35.73,4.41,71.37,7.8,106.97,6.74,70.88,15.55,141.57,20.21,212.63,3.55,54.11,4.75,108.49,.42,162.63-1.52,19.01-3.6,38.1-6.63,56.93l-3.22,18.9c-2.33,12.64-5.04,25.19-8.13,37.67-.19,.84,1.67-.98,1.51-.84,.8-.71,1.59-1.44,2.36-2.19,.43-.36,.81-.78,1.13-1.24,3.02-12.56,5.67-25.2,7.94-37.92,1.74-9.47,3.22-18.98,4.44-28.53,2.18-15.89,3.89-31.81,5.08-47.81,1.91-25.54,2.63-51.16,2.5-76.77-.42-80.68-9.42-161-17.71-241.16-4.32-41.79-8.58-83.63-11.21-125.57-2.45-39.14-3.75-78.34-4.09-117.56-.34-39.21,.25-78.41,1.25-117.61,1.16-45.43,2.59-90.91,5.33-136.27-.27,0-.5,.1-.69,.32-.7,.58-1.38,1.18-2.04,1.8-.48,.44-2.3,1.71-2.34,2.55Z"/>
          <path class="cls-1" d="M33.45,9.73c-3.44,78.31-6.45,156.71-6.26,235.11,.1,39.27,1.02,78.55,3.2,117.77,2.16,38.88,5.69,77.67,9.62,116.4,7.84,77.08,17.35,154.19,19.81,231.69,1.11,35.09,.98,70.18-1.37,105.21-1.28,19.07-3.21,38.05-5.9,56.97-1.26,9.49-2.78,18.95-4.55,28.36-2.33,12.63-5.03,25.18-8.1,37.66,.44-.13,.83-.37,1.14-.73,1.28-1.09,2.53-2.2,3.77-3.33,1.25-1.12,2.48-2.26,3.69-3.42,.39-.28,.67-.64,.84-1.07,2.97-12.65,5.56-25.38,7.78-38.18,1.02-6.38,2.04-12.75,3.06-19.13,2.87-19.07,4.72-38.29,6.16-57.52,2.88-38.39,2.83-77.03,1.37-115.49-2.94-77.5-12.3-154.55-19.83-231.68-3.77-38.57-7.24-77.2-9.19-115.91-1.97-39.09-2.91-78.23-2.88-117.37,.02-35.91,.66-71.82,1.69-107.71,1.21-42.14,2.38-84.33,5.44-126.38-.45,.13-.83,.38-1.15,.75-1.28,1.12-2.55,2.26-3.79,3.42-1.26,1.15-2.49,2.32-3.71,3.51-.39,.29-.67,.65-.84,1.09Z"/>
          <path class="cls-1" d="M32.51,6.91c-3.56,78.21-6.45,156.53-6.25,234.83,.1,39.27,1.03,78.56,3.22,117.77,2.17,38.88,5.71,77.67,9.66,116.4,7.86,77.08,17.38,154.19,19.82,231.69,1.11,35.09,.96,70.18-1.42,105.21-1.29,19.07-3.24,38.04-5.94,56.97-1.27,9.49-2.79,18.94-4.58,28.35-2.34,12.63-5.05,25.18-8.14,37.65-.18,.76,1.43-.76,1.28-.63,.66-.58,1.3-1.18,1.93-1.79,.36-.3,.66-.64,.91-1.03,3.02-12.53,5.67-25.14,7.95-37.82l3.14-18.97c2.96-18.93,4.89-38.01,6.41-57.11,3.04-38.21,3.11-76.68,1.74-114.97-2.77-77.52-12.17-154.57-19.84-231.7-3.85-38.69-7.41-77.43-9.45-116.26-2.05-39.18-3.04-78.41-3.06-117.65-.01-35.96,.6-71.9,1.61-107.84,1.2-42.3,2.43-84.66,5.08-126.9,0-.16-2.3,1.72-2.25,1.68-.45,.42-1.83,1.36-1.86,2.11Z"/>
          <path class="cls-1" d="M32.47,7.89c-3.5,78.28-6.46,156.66-6.26,235.03,.1,39.27,1.03,78.54,3.22,117.75,2.17,38.87,5.71,77.65,9.65,116.38,7.85,77.08,17.37,154.19,19.82,231.69,1.11,35.1,.97,70.2-1.41,105.24-1.29,19.08-3.23,38.06-5.93,56.99-1.27,9.5-2.79,18.95-4.58,28.37-2.34,12.64-5.05,25.19-8.13,37.67,.33-.04,.61-.2,.85-.47,.9-.76,1.78-1.55,2.64-2.36,.74-.68,2.84-2.11,3.09-3.25,2.99-12.58,5.6-25.24,7.85-37.98,1.03-6.35,2.06-12.69,3.09-19.04,2.91-18.99,4.79-38.13,6.26-57.28,2.94-38.29,2.94-76.83,1.53-115.19-2.87-77.51-12.25-154.56-19.84-231.7-3.8-38.64-7.32-77.33-9.3-116.12-2.01-39.14-2.96-78.34-2.95-117.53,0-35.94,.64-71.87,1.66-107.79,1.2-42.14,2.4-84.35,5.25-126.42-.33,.04-.61,.19-.84,.46-.89,.75-1.76,1.53-2.62,2.33-.53,.49-3.02,2.23-3.06,3.22Z"/>
          <path class="cls-1" d="M31.86,6.35c-3.08,78.28-6.32,156.58-6.12,234.94,.1,39.28,1.04,78.57,3.23,117.79,2.17,38.89,5.72,77.68,9.67,116.43,7.86,77.07,17.39,154.19,19.82,231.69,1.1,35.08,.95,70.16-1.43,105.18-1.3,19.06-3.24,38.03-5.95,56.94-1.27,9.49-2.8,18.93-4.58,28.34-2.34,12.62-5.05,25.16-8.14,37.62-.16,.69,1.21-.55,1.08-.44,.57-.49,2.08-1.48,2.26-2.29,3.03-12.5,5.69-25.09,7.98-37.75,1.05-6.31,2.1-12.62,3.15-18.93,2.97-18.9,4.92-37.95,6.45-57.02,3.06-38.17,3.16-76.61,1.8-114.86-2.74-77.52-12.14-154.57-19.83-231.69-3.86-38.71-7.44-77.48-9.49-116.33-2.06-39.2-3.06-78.45-3.09-117.71-.05-78.17,2.62-156.38,6.34-234.46,.03-.63-1.03,.39-1.04,.4-.43,.36-2.1,1.5-2.13,2.15Z"/>
          <path class="cls-1" d="M33.09,8.92c-3.52,78.3-6.47,156.71-6.27,235.1,.1,39.27,1.03,78.54,3.21,117.75,2.16,38.87,5.69,77.65,9.64,116.38,7.85,77.08,17.36,154.19,19.81,231.69,1.11,35.1,.98,70.19-1.39,105.23-1.29,19.08-3.22,38.06-5.91,56.99-1.26,9.5-2.78,18.95-4.56,28.37-2.33,12.64-5.03,25.19-8.11,37.67,.41-.09,.75-.3,1.04-.63,1.14-.97,2.27-1.96,3.38-2.98,1.12-1,2.22-2.02,3.3-3.07,.35-.25,.6-.58,.73-.97,2.97-12.63,5.57-25.33,7.8-38.11,1.02-6.37,2.04-12.73,3.07-19.1,2.88-19.04,4.75-38.23,6.2-57.44,2.9-38.36,2.87-76.96,1.42-115.38-2.91-77.51-12.28-154.55-19.83-231.69-3.78-38.6-7.26-77.24-9.23-115.98-1.99-39.11-2.92-78.27-2.9-117.43,.02-35.92,.65-71.83,1.68-107.74,1.21-42.16,2.41-84.37,5.36-126.44-.41,.1-.75,.31-1.04,.65-1.14,.99-2.26,2-3.37,3.02-1.11,1.02-2.21,2.06-3.28,3.11-.35,.26-.59,.59-.73,.98Z"/>
          <path class="cls-1" d="M31.43,6.19c-1.11,39.08-2.94,78.14-4.11,117.23-1.18,39.23-1.9,78.49-1.79,117.74,.11,39.29,1.06,78.6,3.26,117.83,2.19,38.9,5.75,77.72,9.71,116.48,7.88,77.07,17.4,154.18,19.81,231.68,1.09,35.06,.92,70.11-1.49,105.11-1.31,19.04-3.27,37.99-5.98,56.88-1.27,9.48-2.81,18.91-4.6,28.3-2.35,12.6-5.07,25.13-8.16,37.57-.13,.55,.85-.2,.81-.17,.42-.3,1.35-.94,1.47-1.49,3.06-12.46,5.74-25,8.05-37.62,1.06-6.29,2.13-12.58,3.19-18.87,3.01-18.85,5-37.85,6.56-56.87,3.14-38.11,3.29-76.48,1.98-114.67-2.66-77.51-12.06-154.56-19.8-231.67-3.89-38.75-7.52-77.55-9.6-116.44-2.1-39.23-3.13-78.52-3.18-117.81-.04-35.98,.55-71.95,1.56-107.92,.55-19.61,1.21-39.21,1.93-58.82,.84-22.63,1.86-45.25,2.32-67.89,.01-.52-1.93,.91-1.94,1.42Z"/>
          <path class="cls-1" d="M32.52,6.63c-3.04,78.28-6.31,156.57-6.1,234.92,.1,39.28,1.04,78.57,3.24,117.79,2.18,38.89,5.72,77.68,9.68,116.42,7.87,77.07,17.39,154.19,19.82,231.69,1.1,35.08,.95,70.16-1.44,105.19-1.3,19.06-3.25,38.03-5.95,56.95-1.27,9.49-2.8,18.94-4.59,28.34-2.34,12.62-5.06,25.17-8.15,37.63-.16,.68,1.17-.51,1.05-.41,.56-.47,1.99-1.42,2.17-2.2,3.04-12.51,5.71-25.09,8-37.76l3.17-18.94c2.98-18.91,4.94-37.96,6.48-57.04,3.08-38.18,3.19-76.63,1.84-114.89-2.73-77.52-12.13-154.57-19.84-231.69-3.87-38.71-7.46-77.46-9.51-116.31-2.07-39.19-3.08-78.44-3.11-117.69-.06-78.17,2.67-156.36,6.31-234.44,.03-.62-1,.36-1.01,.37-.42,.35-2.03,1.44-2.05,2.08Z"/>
          <path class="cls-1" d="M32.26,7.32c-2.95,71.75-5.85,143.52-6.16,215.34-.15,35.99,.36,71.98,1.82,107.94,1.45,35.77,3.96,71.47,7.27,107.11,6.6,70.91,15.61,141.62,20.5,212.68,2.2,32,3.65,64.02,3.81,96.09,.22,44.15-2.38,90.16-9.39,133.08l-3.22,18.9c-2.33,12.64-5.04,25.19-8.13,37.66-.2,.85,1.73-1.04,1.57-.89,.84-.75,1.67-1.52,2.49-2.3,.45-.38,.85-.82,1.2-1.3,3-12.55,5.64-25.19,7.9-37.9,1.19-6.35,2.24-12.72,3.13-19.12,1.89-12.63,3.44-25.27,4.68-37.98,2.5-25.5,3.74-51.14,4.05-76.76,1.02-83.85-8.06-167.38-16.67-250.66-3.99-38.62-7.89-77.25-10.82-115.97-3.44-45.54-5.07-91.23-5.4-136.89-.28-39.21,.24-78.42,1.27-117.62,1.2-45.43,2.57-90.92,5.37-136.29-.28,0-.51,.11-.71,.34-.73,.6-1.44,1.23-2.13,1.88-.49,.45-2.41,1.78-2.44,2.65Z"/>
        </g>
      </g>
      <g>
        <path class="cls-1" d="M7.82,6.68C4.78,81.85,1.74,157.04,1.67,232.29c-.03,36.08,.65,72.14,2.23,108.18,1.67,38.19,4.77,76.3,8.48,114.34,6.69,68.65,14.96,137.15,19.57,205.99,1.25,18.6,2.15,37.26,2.68,55.9,1.03,36.87,.67,74.28-2.6,110.9-1.65,18.44-3.63,36.86-6.62,55.14l-3.16,18.3c-2.28,12.24-4.91,24.4-7.89,36.49-.19,.83,1.67-.96,1.51-.83,.8-.71,1.6-1.44,2.37-2.18,.43-.36,.81-.77,1.14-1.23,2.92-12.17,5.49-24.41,7.71-36.73,1.7-9.18,3.15-18.39,4.36-27.64,2.16-15.42,3.93-30.89,5.1-46.42,1.86-24.71,2.79-49.46,2.81-74.25,.05-81.28-8.85-162.2-17.19-242.94-3.86-37.41-7.6-74.82-10.44-112.32-3.45-45.42-5.07-91-5.41-136.54-.29-39.3,.22-78.59,1.25-117.87C8.75,93.05,10.14,47.47,12.88,2.01c-.27,0-.5,.1-.69,.32-.7,.58-1.38,1.18-2.04,1.8-.48,.44-2.3,1.71-2.34,2.55Z"/>
        <path class="cls-1" d="M7.92,8.77C4.49,87.27,1.57,165.82,1.67,244.4c.05,39.36,1.09,78.72,3.2,118.03,2.2,41.03,6.1,81.95,10.27,122.82,7.63,74.69,16.43,149.36,19.09,224.44,1.31,37.07,1.09,74.17-1.57,111.18-1.33,18.47-3.27,36.85-5.93,55.17-1.25,9.19-2.74,18.35-4.47,27.47-2.27,12.23-4.89,24.39-7.87,36.48,.44-.12,.83-.36,1.15-.72,1.28-1.08,2.54-2.19,3.79-3.31,1.25-1.11,2.49-2.25,3.7-3.4,.39-.28,.67-.63,.84-1.06,2.87-12.26,5.39-24.59,7.56-36.99l3-18.53c2.82-18.48,4.69-37.09,6.17-55.72,2.95-37.19,3.04-74.6,1.92-111.86-2.34-78.2-11.77-156.02-19.5-233.81-3.72-37.45-7.12-74.95-9.28-112.53-2.25-39.17-3.25-78.39-3.41-117.62s.53-78.52,1.65-117.76C13.19,84.43,14.36,42.14,17.42,0c-.45,.13-.83,.39-1.15,.75-1.28,1.12-2.55,2.26-3.79,3.42-1.26,1.15-2.49,2.32-3.71,3.51-.39,.29-.67,.65-.84,1.09Z"/>
        <path class="cls-1" d="M6.99,5.94C3.44,84.34,.64,162.82,.75,241.3c.06,39.36,1.11,78.73,3.23,118.03,2.21,41.03,6.12,81.96,10.31,122.82,7.65,74.69,16.46,149.36,19.1,224.45,1.3,37.07,1.07,74.17-1.62,111.18-1.34,18.47-3.3,36.85-5.97,55.17-1.26,9.19-2.76,18.35-4.5,27.46-2.28,12.23-4.92,24.39-7.9,36.47-.18,.76,1.43-.75,1.29-.62,.66-.58,1.31-1.17,1.94-1.78,.36-.3,.67-.64,.91-1.03,2.92-12.14,5.5-24.35,7.73-36.64,1.03-6.12,2.05-12.25,3.08-18.37,2.91-18.34,4.86-36.81,6.41-55.31,3.1-37.01,3.32-74.24,2.3-111.34-2.15-78.2-11.62-156.02-19.47-233.78-3.79-37.56-7.28-75.17-9.51-112.86-2.33-39.26-3.39-78.58-3.59-117.91-.2-39.31,.45-78.62,1.56-117.91C7.22,86.94,8.46,44.48,11.1,2.15c0-.16-2.3,1.72-2.25,1.68-.45,.42-1.83,1.36-1.86,2.11Z"/>
        <path class="cls-1" d="M6.94,6.92C3.44,85.39,.58,163.93,.7,242.48c.06,39.36,1.1,78.71,3.22,118.01,2.21,41.02,6.12,81.94,10.3,122.8,7.64,74.69,16.45,149.36,19.1,224.45,1.31,37.09,1.08,74.19-1.61,111.21-1.34,18.48-3.29,36.86-5.96,55.19-1.26,9.2-2.75,18.36-4.5,27.48-2.28,12.24-4.91,24.4-7.9,36.49,.33-.04,.62-.19,.85-.46,.9-.76,1.79-1.54,2.65-2.35,.73-.67,2.85-2.1,3.11-3.24,2.89-12.19,5.43-24.46,7.62-36.8l3.03-18.44c2.86-18.4,4.76-36.93,6.26-55.49,3.01-37.09,3.15-74.39,2.08-111.56-2.26-78.2-11.71-156.02-19.5-233.8-3.75-37.52-7.19-75.08-9.38-112.73-2.28-39.22-3.31-78.5-3.48-117.79-.17-39.29,.5-78.57,1.61-117.85C9.41,85.38,10.61,43.08,13.46,.92c-.33,.04-.61,.19-.84,.46-.89,.76-1.76,1.53-2.62,2.33-.53,.49-3.02,2.23-3.06,3.22Z"/>
        <path class="cls-1" d="M6.33,5.38C3.25,83.85,.11,162.31,.22,240.85c.06,39.37,1.11,78.74,3.23,118.05,2.22,41.04,6.13,81.97,10.32,122.85,7.65,74.69,16.46,149.36,19.1,224.44,1.3,37.06,1.06,74.15-1.63,111.15-1.34,18.46-3.3,36.83-5.98,55.14-1.26,9.19-2.76,18.34-4.5,27.45-2.29,12.22-4.92,24.37-7.91,36.45-.16,.69,1.2-.54,1.09-.44,.57-.48,2.09-1.48,2.27-2.27,2.93-12.12,5.51-24.3,7.75-36.57,1.03-6.11,2.06-12.23,3.09-18.34,2.92-18.31,4.88-36.76,6.44-55.22,3.13-36.97,3.36-74.16,2.36-111.23-2.12-78.19-11.59-156.01-19.46-233.77-3.81-37.59-7.3-75.21-9.55-112.93-2.34-39.28-3.42-78.62-3.62-117.97-.21-39.32,.44-78.64,1.55-117.94C5.95,87.41,7.49,45.11,9.5,2.84c.03-.63-1.03,.39-1.04,.4-.43,.36-2.1,1.5-2.13,2.15Z"/>
        <path class="cls-1" d="M7.57,7.95C4.05,86.44,1.2,165.01,1.3,243.58c.05,39.36,1.1,78.72,3.21,118.02,2.21,41.02,6.1,81.94,10.28,122.8,7.63,74.69,16.44,149.36,19.09,224.45,1.31,37.08,1.09,74.19-1.59,111.21-1.33,18.47-3.28,36.86-5.94,55.19-1.25,9.2-2.75,18.36-4.48,27.48-2.28,12.24-4.9,24.4-7.88,36.49,.41-.09,.75-.3,1.04-.63,1.15-.97,2.28-1.95,3.39-2.96,1.12-1,2.23-2.01,3.31-3.05,.35-.25,.6-.57,.73-.97,2.87-12.24,5.4-24.54,7.58-36.92,1-6.17,2-12.33,3.01-18.5,2.83-18.45,4.71-37.04,6.2-55.64,2.97-37.16,3.08-74.52,1.97-111.76-2.31-78.2-11.75-156.02-19.5-233.8-3.73-37.48-7.14-74.99-9.31-112.59-2.26-39.19-3.27-78.43-3.43-117.68-.16-39.27,.52-78.54,1.64-117.79C11.83,84.66,13.03,42.36,15.98,.19c-.41,.1-.75,.31-1.04,.65-1.14,.99-2.26,2-3.37,3.02-1.11,1.02-2.21,2.06-3.28,3.11-.35,.26-.59,.59-.73,.98Z"/>
        <path class="cls-1" d="M5.9,5.22C4.8,44.4,2.97,83.54,1.79,122.71,.61,162.04-.06,201.37,0,240.72c.07,39.38,1.13,78.77,3.26,118.09,2.23,41.05,6.16,82,10.35,122.89,7.67,74.69,16.48,149.35,19.08,224.43,1.29,37.04,1.03,74.1-1.69,111.07-1.36,18.44-3.33,36.79-6.01,55.08-1.26,9.18-2.77,18.31-4.52,27.41-2.29,12.21-4.94,24.34-7.93,36.39-.13,.55,.85-.2,.81-.16,.42-.3,1.35-.94,1.48-1.49,2.95-12.07,5.56-24.22,7.82-36.44,1.04-6.09,2.09-12.19,3.13-18.28,2.96-18.25,4.95-36.66,6.55-55.08,3.2-36.9,3.49-74.04,2.53-111.04-2.03-78.18-11.49-155.99-19.41-233.73-3.83-37.62-7.36-75.27-9.64-113.01-2.38-39.32-3.49-78.69-3.72-118.07s.4-78.67,1.5-118c.55-19.65,1.21-39.3,1.93-58.95,.84-22.68,1.86-45.35,2.32-68.05,.01-.52-1.93,.91-1.94,1.42Z"/>
        <path class="cls-1" d="M7,5.67C3.96,84.13,.78,162.58,.9,241.12c.06,39.37,1.11,78.74,3.24,118.05,2.22,41.04,6.13,81.97,10.32,122.84,7.65,74.69,16.47,149.36,19.1,224.44,1.3,37.07,1.06,74.15-1.64,111.16-1.35,18.46-3.31,36.83-5.98,55.15-1.26,9.19-2.76,18.34-4.51,27.45-2.29,12.23-4.92,24.38-7.91,36.45-.16,.68,1.17-.5,1.05-.41,.56-.47,2-1.41,2.17-2.19,2.94-12.12,5.53-24.31,7.77-36.58l3.1-18.35c2.93-18.31,4.9-36.77,6.47-55.24,3.15-36.98,3.39-74.19,2.4-111.26-2.1-78.2-11.57-156.01-19.46-233.77-3.81-37.58-7.32-75.2-9.57-112.91-2.35-39.28-3.43-78.61-3.65-117.95C3.37,166.39,6.27,84.73,10.06,3.21c.03-.62-1,.36-1.01,.37-.42,.35-2.03,1.44-2.05,2.08Z"/>
        <path class="cls-1" d="M6.74,6.36C3.79,78.26,.89,150.2,.59,222.17c-.15,36.07,.36,72.14,1.82,108.18,1.42,35.2,3.87,70.34,7.11,105.42,6.34,68.72,14.97,137.24,20.02,206.08,2.28,31.01,3.89,62.05,4.37,93.15,.28,18.47,.22,37.15-.72,55.61-4.01,36.71-8.03,73.42-12.04,110.13-2.28,12.24-4.91,24.4-7.89,36.48-.2,.85,1.73-1.02,1.57-.89,.85-.75,1.68-1.51,2.5-2.29,.46-.38,.86-.81,1.2-1.29,4.1-18.3,7.9-36.57,10.73-55.12,.95-6.21,1.81-12.43,2.6-18.67,3.87-30.69,5.91-61.66,6.36-92.58,1.19-81.23-6.78-162.08-15.12-242.77-4.19-40.55-8.44-81.09-11.62-121.73-3.29-42.03-5.18-84.14-5.86-126.29-.75-45.84-.18-91.7,1.03-137.53C7.85,92.54,9.22,46.96,12.02,1.49c-.28,0-.51,.11-.71,.34-.73,.6-1.44,1.23-2.13,1.88-.49,.45-2.41,1.78-2.44,2.65Z"/>
      </g>
    </g>
  </g>
</svg>